# xmcd CD database file
# Copyright (C) 1997 Ti Kan
# 
# Track frame offsets:
#     150
#     16875
#     28755
#     45250
#     66410
#     79873
#     97195
#     121210
#     137950
#     154260
#     173313
#     190685
#     207013
#     225368
# 
# Disc length: 3218 seconds
# 
# Revision: 1
# Processed by: cddbd v1.4b41PL1 Copyright (c) Steve Scherf et al.
# Submitted via: DiscPlay 4.0.3
# 
DISCID=ac0c900e
DTITLE=Maureen McGovern - Baby I'm Yours
DYEAR=1900
DGENRE=
TTITLE0=Are You There (With Another Girl)
TTITLE1=I Will
TTITLE2=Baby I'm Yours
TTITLE3=It's All In The Game
TTITLE4=Angel On My Shoulder
TTITLE5=Sincerly
TTITLE6=Things We Said Today/For No One
TTITLE7=You Belong To Me
TTITLE8=Gonna Get Along Without You Now
TTITLE9=Put Your Head On My Shoulder
TTITLE10=Blue On Blue
TTITLE11=You Don't Have To Say You Love Me
TTITLE12=Anyone Who Had A Heart
TTITLE13=You Can Close Your Eyes
EXTD=
EXTT0=
EXTT1=
EXTT2=
EXTT3=
EXTT4=
EXTT5=
EXTT6=
EXTT7=
EXTT8=
EXTT9=
EXTT10=
EXTT11=
EXTT12=
EXTT13=
PLAYORDER=
